# xmcd
#
# Track frame offsets:
#	182
#	18320
#	35715
#	53227
#	71332
#	88377
#	104800
#	122887
#	140257
#	157827
#
# Disc length: 2335 seconds
#
# Revision: 1
# Processed by: cddbd v1.5.1PL0 Copyright (c) Steve Scherf et al.
# Submitted via: audiograbber 1.83.01
#
DISCID=8a091d0a
DTITLE=Gregory Isaacs - Midnight Confidential
DYEAR=1994
DGENRE=
TTITLE0=Make Me Prosper
TTITLE1=Goodbye Love
TTITLE2=Hello Stranger
TTITLE3=Let's Talk
TTITLE4=Don't Take Your Love
TTITLE5=Not Because I Smile
TTITLE6=Non Stop Loving
TTITLE7=One Good Turn
TTITLE8=I Could Not Believe
TTITLE9=Twelve Tribe Dance
EXTD=
EXTT0=
EXTT1=
EXTT2=
EXTT3=
EXTT4=
EXTT5=
EXTT6=
EXTT7=
EXTT8=
EXTT9=
PLAYORDER=
